<?xml version="1.0" encoding="UTF-8"?>
<svg xmlns="http://www.w3.org/2000/svg" width="91" height="91" viewBox="0 0 91 91" fill="none">
  <g id="Group">
    <path id="Vector" d="M45.2643 0.471313C20.311 0.471313 0 20.7824 0 45.7357C0 70.6889 20.3 91 45.2643 91C70.2286 91 90.5287 70.7 90.5287 45.7357C90.5287 20.7714 70.2175 0.471313 45.2643 0.471313ZM70.6036 29.0854L69.8537 29.8353H66.4686L65.3549 30.6622L48.7929 72.7619L48.0871 73.4676H42.8053L42.0996 72.7619L25.5376 30.6622L24.424 29.8353H21.0388L20.289 29.0854V24.8843L20.9837 24.2006H29.2206L30.4996 25.3695L36.057 39.649L37.4133 40.3326H53.4792L54.8354 39.649L60.3929 25.3695L61.6719 24.2006H69.9089L70.6036 24.8843V29.0854Z" fill="#F47D20"></path>
    <path id="Vector_2" d="M39.5084 46.5956L38.9681 47.1358L45.099 62.9039H45.8046L51.9354 47.1358L51.3951 46.5956H39.5084Z" fill="#F47D20"></path>
  </g>
</svg>
